Coordinates
version=1
nRows=17
nColumns=24
inDegrees=yes

Units are S.I. units (second, meters, Newtons, ...)
Angles are in degrees.

endheader
time	pelvis_tilt	pelvis_list	pelvis_rotation	pelvis_tx	pelvis_ty	pelvis_tz	hip_flexion_r	hip_adduction_r	hip_rotation_r	knee_angle_r	ankle_angle_r	subtalar_angle_r	mtp_angle_r	hip_flexion_l	hip_adduction_l	hip_rotation_l	knee_angle_l	ankle_angle_l	subtalar_angle_l	mtp_angle_l	lumbar_extension	lumbar_bending	lumbar_rotation
      3.92000000	     -4.93932471	      4.07131802	      5.62250557	     -0.44846672	     -0.03573662	     -0.20402519	     36.28861382	     -2.50161895	     -3.85672577	    -18.38840787	      0.45946889	      7.94288174	     11.10576776	     -8.84227805	      7.55487508	     -7.06586438	    -24.03046804	     15.02748834	     25.03760867	     -6.72283817	      2.74516144	     -7.49080411	    -11.64119969
      3.92500000	     -5.03992727	      3.82696390	      5.63990917	     -0.44067594	     -0.03610140	     -0.20366939	     36.24311383	     -2.16889946	     -3.81873013	    -19.01493428	     -0.24566402	      7.48769863	     11.28310465	     -8.74508699	      7.04980608	     -7.30499647	    -24.81471254	     13.64730487	     25.26344372	     -4.09246160	      3.04550101	     -7.19069087	    -11.58414869
      3.93000000	     -5.20268903	      3.52141219	      5.70801968	     -0.43287227	     -0.03645502	     -0.20336222	     36.28168056	     -1.83454720	     -4.00274999	    -19.67528248	     -0.85605596	      7.28544548	     11.20942517	     -8.47003117	      6.44836461	     -7.51915307	    -25.90699844	     12.76374990	     25.77404163	     -3.60463834	      3.41908887	     -6.83147006	    -11.49337201
      3.93500000	     -5.21173097	      3.25828848	      5.64353059	     -0.42514588	     -0.03650706	     -0.20288434	     36.12850701	     -1.40904941	     -3.75982373	    -20.18505828	     -1.94760324	      6.58783818	     11.63577693	     -8.46200759	      5.90604091	     -7.80315493	    -26.39682418	     10.20647484	     25.72916443	      2.59304967	      3.59816055	     -6.49174881	    -11.34540451
      3.94000000	     -5.39480131	      2.95621063	      5.47709675	     -0.41734331	     -0.03678971	     -0.20219686	     36.23166371	     -0.86370222	     -3.36381611	    -20.84237369	     -2.82793640	      5.98773727	     11.11564576	     -8.12387381	      5.29832083	     -8.28508751	    -27.39690344	      8.64045315	     26.12210524	      4.65340299	      4.00028810	     -6.11782774	    -10.96719411
      3.94500000	     -5.49643444	      2.57599061	      5.52751174	     -0.40957771	     -0.03675766	     -0.20183274	     36.18039978	     -0.40547534	     -3.27868753	    -21.41544026	     -3.61924768	      5.67698696	     10.89704405	     -7.84307618	      4.57661579	     -8.52003719	    -28.19131407	      6.20622223	     26.21521664	      9.57147670	      4.28195294	     -5.67580757	    -10.95283317
      3.95000000	     -5.64590638	      2.22884750	      5.34007951	     -0.40172748	     -0.03685791	     -0.20112289	     36.22978600	      0.22458372	     -2.74204443	    -22.04460689	     -4.52122263	      5.02461163	     10.39446169	     -7.47340857	      3.90253633	     -8.96318068	    -29.18057175	      4.12344939	     26.41161445	     12.26272566	      4.65122421	     -5.24673589	    -10.57761723
      3.95500000	     -5.79521329	      1.82634293	      5.32747653	     -0.39395349	     -0.03686701	     -0.20061404	     36.25681957	      0.77730706	     -2.46753492	    -22.68001685	     -5.20052803	      4.69278627	     10.00284278	     -7.01718882	      3.12634618	     -9.27221510	    -30.16792685	      1.61382024	     26.50484246	     16.29969821	      4.98364799	     -4.78891686	    -10.48050567
      3.96000000	     -5.92008157	      1.46364711	      5.15919564	     -0.38614327	     -0.03690959	     -0.19991631	     36.27403561	      1.42795486	     -1.90424560	    -23.34113721	     -5.92029159	      4.09896807	      9.56223157	     -6.56789398	      2.41467704	     -9.64433586	    -31.23151611	     -0.85216754	     26.48238911	     19.09793548	      5.30125265	     -4.34489403	    -10.16063960
      3.96500000	     -6.07786752	      1.07262742	      5.03921719	     -0.37833858	     -0.03698589	     -0.19926784	     36.30928179	      2.07126488	     -1.42573228	    -23.99353148	     -6.50649449	      3.56207382	      9.21386044	     -6.01195810	      1.66427777	     -9.93570195	    -32.36697560	     -3.46006799	     26.35001876	     21.83605953	      5.65026437	     -3.88431803	     -9.93201497
      3.97000000	     -6.29223862	      0.65784451	      4.98156947	     -0.37058957	     -0.03712800	     -0.19865299	     36.37950764	      2.71548937	     -0.97643633	    -24.60826025	     -7.09330878	      2.79244754	      8.86461028	     -5.27817662	      0.90226128	    -10.03059292	    -33.76480338	     -5.77526801	     26.21896906	     22.60808368	      6.05122345	     -3.42774740	     -9.79478977
      3.97500000	     -6.35099522	      0.23776856	      4.79394195	     -0.36281453	     -0.03717070	     -0.19797334	     36.26573778	      3.42665046	     -0.52799387	    -25.19505157	     -7.47541334	      2.27363888	      8.76527437	     -4.75555131	      0.12734197	    -10.32539751	    -34.89166027	     -8.78524165	     25.65787976	     25.50357004	      6.28184190	     -2.91445242	     -9.51188598
      3.98000000	     -6.44951630	     -0.12636017	      4.65797654	     -0.35526155	     -0.03727617	     -0.19730619	     36.19427891	      4.06929912	     -0.05588645	    -25.78562829	     -7.82640541	      1.56404267	      8.61462820	     -4.05669415	     -0.55192689	    -10.41771703	    -36.32138946	    -11.39710440	     24.98799357	     25.81616435	      6.50968898	     -2.49312276	     -9.32321988
      3.98500000	     -6.49858902	     -0.53712210	      4.50523224	     -0.34766769	     -0.03732835	     -0.19671917	     36.01942308	      4.74541327	      0.28556651	    -26.29383656	     -8.03199192	      0.93057776	      8.54394894	     -3.38155914	     -1.24353714	    -10.42118734	    -37.75602206	    -14.02893235	     24.09663791	     25.66934770	      6.69944058	     -1.98611278	     -9.05813405
      3.99000000	     -6.52090315	     -1.01304896	      4.34121229	     -0.34009965	     -0.03744497	     -0.19606910	     35.78844498	      5.48521854	      0.53909006	    -26.75368747	     -8.06235865	      0.41199544	      8.55365718	     -2.66706573	     -2.03968414	    -10.55433546	    -39.28350804	    -16.58765324	     23.05202824	     25.22793676	      6.86181456	     -1.42835566	     -8.83235957
      3.99500000	     -6.59324389	     -1.40552782	      4.12968787	     -0.33270351	     -0.03756598	     -0.19525949	     35.59726719	      6.20073242	      0.92366301	    -27.17301673	     -8.24452469	     -0.39750494	      8.59272187	     -1.86672562	     -2.70321534	    -10.58576293	    -40.77904280	    -19.22321833	     21.79753538	     24.50573002	      7.04249408	     -0.97569014	     -8.53837632
      4.00000000	     -6.65361108	     -1.81888181	      3.90500088	     -0.32535582	     -0.03770844	     -0.19444273	     35.35099814	      6.93623248	      1.25163149	    -27.50826537	     -8.32978080	     -1.20054494	      8.80449292	     -1.02584049	     -3.38882762	    -10.65948735	    -42.34823267	    -21.67490143	     20.36306448	     23.17751680	      7.20532193	     -0.49311107	     -8.24615840
